<svg viewBox="0 0 900 600" width="900" height="600" xmlns="http://www.w3.org/2000/svg" xmlns:xlink="http://www.w3.org/1999/xlink" version="1.1"><path d="M0 406L9.3 408C18.7 410 37.3 414 56.2 422C75 430 94 442 112.8 443.3C131.7 444.7 150.3 435.3 169 431.3C187.7 427.3 206.3 428.7 225 432.7C243.7 436.7 262.3 443.3 281.2 442C300 440.7 319 431.3 337.8 433.2C356.7 435 375.3 448 394 454.7C412.7 461.3 431.3 461.7 450 459.2C468.7 456.7 487.3 451.3 506.2 444.2C525 437 544 428 562.8 427.2C581.7 426.3 600.3 433.7 619 439.5C637.7 445.3 656.3 449.7 675 451.3C693.7 453 712.3 452 731.2 445.2C750 438.3 769 425.7 787.8 423.3C806.7 421 825.3 429 844 429.5C862.7 430 881.3 423 890.7 419.5L900 416L900 601L890.7 601C881.3 601 862.7 601 844 601C825.3 601 806.7 601 787.8 601C769 601 750 601 731.2 601C712.3 601 693.7 601 675 601C656.3 601 637.7 601 619 601C600.3 601 581.7 601 562.8 601C544 601 525 601 506.2 601C487.3 601 468.7 601 450 601C431.3 601 412.7 601 394 601C375.3 601 356.7 601 337.8 601C319 601 300 601 281.2 601C262.3 601 243.7 601 225 601C206.3 601 187.7 601 169 601C150.3 601 131.7 601 112.8 601C94 601 75 601 56.2 601C37.3 601 18.7 601 9.3 601L0 601Z" fill="#b3e4fd"></path><path d="M0 445L9.3 445.2C18.7 445.3 37.3 445.7 56.2 451C75 456.3 94 466.7 112.8 471.2C131.7 475.7 150.3 474.3 169 472.2C187.7 470 206.3 467 225 465.3C243.7 463.7 262.3 463.3 281.2 458.3C300 453.3 319 443.7 337.8 444.5C356.7 445.3 375.3 456.7 394 456.8C412.7 457 431.3 446 450 443.3C468.7 440.7 487.3 446.3 506.2 446.3C525 446.3 544 440.7 562.8 437.5C581.7 434.3 600.3 433.7 619 440.5C637.7 447.3 656.3 461.7 675 469.5C693.7 477.3 712.3 478.7 731.2 474.7C750 470.7 769 461.3 787.8 457C806.7 452.7 825.3 453.3 844 456.8C862.7 460.3 881.3 466.7 890.7 469.8L900 473L900 601L890.7 601C881.3 601 862.7 601 844 601C825.3 601 806.7 601 787.8 601C769 601 750 601 731.2 601C712.3 601 693.7 601 675 601C656.3 601 637.7 601 619 601C600.3 601 581.7 601 562.8 601C544 601 525 601 506.2 601C487.3 601 468.7 601 450 601C431.3 601 412.7 601 394 601C375.3 601 356.7 601 337.8 601C319 601 300 601 281.2 601C262.3 601 243.7 601 225 601C206.3 601 187.7 601 169 601C150.3 601 131.7 601 112.8 601C94 601 75 601 56.2 601C37.3 601 18.7 601 9.3 601L0 601Z" fill="#b7d7fc"></path><path d="M0 469L9.3 468.3C18.7 467.7 37.3 466.3 56.2 466.7C75 467 94 469 112.8 470.7C131.7 472.3 150.3 473.7 169 473.5C187.7 473.3 206.3 471.7 225 471.2C243.7 470.7 262.3 471.3 281.2 472.8C300 474.3 319 476.7 337.8 474.5C356.7 472.3 375.3 465.7 394 469.5C412.7 473.3 431.3 487.7 450 493.7C468.7 499.7 487.3 497.3 506.2 493.2C525 489 544 483 562.8 482.2C581.7 481.3 600.3 485.7 619 485C637.7 484.3 656.3 478.7 675 477.7C693.7 476.7 712.3 480.3 731.2 480.7C750 481 769 478 787.8 473.8C806.7 469.7 825.3 464.3 844 466C862.7 467.7 881.3 476.3 890.7 480.7L900 485L900 601L890.7 601C881.3 601 862.7 601 844 601C825.3 601 806.7 601 787.8 601C769 601 750 601 731.2 601C712.3 601 693.7 601 675 601C656.3 601 637.7 601 619 601C600.3 601 581.7 601 562.8 601C544 601 525 601 506.2 601C487.3 601 468.7 601 450 601C431.3 601 412.7 601 394 601C375.3 601 356.7 601 337.8 601C319 601 300 601 281.2 601C262.3 601 243.7 601 225 601C206.3 601 187.7 601 169 601C150.3 601 131.7 601 112.8 601C94 601 75 601 56.2 601C37.3 601 18.7 601 9.3 601L0 601Z" fill="#c3c9f5"></path><path d="M0 497L9.3 495.8C18.7 494.7 37.3 492.3 56.2 492.8C75 493.3 94 496.7 112.8 501.7C131.7 506.7 150.3 513.3 169 516C187.7 518.7 206.3 517.3 225 517.2C243.7 517 262.3 518 281.2 514.3C300 510.7 319 502.3 337.8 502.3C356.7 502.3 375.3 510.7 394 511.5C412.7 512.3 431.3 505.7 450 500C468.7 494.3 487.3 489.7 506.2 490.3C525 491 544 497 562.8 496.7C581.7 496.3 600.3 489.7 619 489.8C637.7 490 656.3 497 675 498.2C693.7 499.3 712.3 494.7 731.2 494.8C750 495 769 500 787.8 499.7C806.7 499.3 825.3 493.7 844 492.3C862.7 491 881.3 494 890.7 495.5L900 497L900 601L890.7 601C881.3 601 862.7 601 844 601C825.3 601 806.7 601 787.8 601C769 601 750 601 731.2 601C712.3 601 693.7 601 675 601C656.3 601 637.7 601 619 601C600.3 601 581.7 601 562.8 601C544 601 525 601 506.2 601C487.3 601 468.7 601 450 601C431.3 601 412.7 601 394 601C375.3 601 356.7 601 337.8 601C319 601 300 601 281.2 601C262.3 601 243.7 601 225 601C206.3 601 187.7 601 169 601C150.3 601 131.7 601 112.8 601C94 601 75 601 56.2 601C37.3 601 18.7 601 9.3 601L0 601Z" fill="#d2bae6"></path><path d="M0 512L9.3 515.8C18.7 519.7 37.3 527.3 56.2 527.7C75 528 94 521 112.8 519.3C131.7 517.7 150.3 521.3 169 521.7C187.7 522 206.3 519 225 519.8C243.7 520.7 262.3 525.3 281.2 526.7C300 528 319 526 337.8 526.2C356.7 526.3 375.3 528.7 394 526.3C412.7 524 431.3 517 450 517.8C468.7 518.7 487.3 527.3 506.2 528C525 528.7 544 521.3 562.8 522C581.7 522.7 600.3 531.3 619 534.8C637.7 538.3 656.3 536.7 675 534.3C693.7 532 712.3 529 731.2 527.5C750 526 769 526 787.8 524.2C806.7 522.3 825.3 518.7 844 515.8C862.7 513 881.3 511 890.7 510L900 509L900 601L890.7 601C881.3 601 862.7 601 844 601C825.3 601 806.7 601 787.8 601C769 601 750 601 731.2 601C712.3 601 693.7 601 675 601C656.3 601 637.7 601 619 601C600.3 601 581.7 601 562.8 601C544 601 525 601 506.2 601C487.3 601 468.7 601 450 601C431.3 601 412.7 601 394 601C375.3 601 356.7 601 337.8 601C319 601 300 601 281.2 601C262.3 601 243.7 601 225 601C206.3 601 187.7 601 169 601C150.3 601 131.7 601 112.8 601C94 601 75 601 56.2 601C37.3 601 18.7 601 9.3 601L0 601Z" fill="#deabd0"></path><path d="M0 544L9.3 542.3C18.7 540.7 37.3 537.3 56.2 537.2C75 537 94 540 112.8 543.8C131.7 547.7 150.3 552.3 169 550.5C187.7 548.7 206.3 540.3 225 538.7C243.7 537 262.3 542 281.2 545.7C300 549.3 319 551.7 337.8 551C356.7 550.3 375.3 546.7 394 545.3C412.7 544 431.3 545 450 543.5C468.7 542 487.3 538 506.2 540.5C525 543 544 552 562.8 556.2C581.7 560.3 600.3 559.7 619 556.2C637.7 552.7 656.3 546.3 675 543.8C693.7 541.3 712.3 542.7 731.2 542.2C750 541.7 769 539.3 787.8 538.2C806.7 537 825.3 537 844 537.7C862.7 538.3 881.3 539.7 890.7 540.3L900 541L900 601L890.7 601C881.3 601 862.7 601 844 601C825.3 601 806.7 601 787.8 601C769 601 750 601 731.2 601C712.3 601 693.7 601 675 601C656.3 601 637.7 601 619 601C600.3 601 581.7 601 562.8 601C544 601 525 601 506.2 601C487.3 601 468.7 601 450 601C431.3 601 412.7 601 394 601C375.3 601 356.7 601 337.8 601C319 601 300 601 281.2 601C262.3 601 243.7 601 225 601C206.3 601 187.7 601 169 601C150.3 601 131.7 601 112.8 601C94 601 75 601 56.2 601C37.3 601 18.7 601 9.3 601L0 601Z" fill="#e49fb4"></path><path d="M0 565L9.3 566.5C18.7 568 37.3 571 56.2 570.2C75 569.3 94 564.7 112.8 562.8C131.7 561 150.3 562 169 562.2C187.7 562.3 206.3 561.7 225 564.5C243.7 567.3 262.3 573.7 281.2 573.7C300 573.7 319 567.3 337.8 566.5C356.7 565.7 375.3 570.3 394 569.8C412.7 569.3 431.3 563.7 450 564C468.7 564.3 487.3 570.7 506.2 574C525 577.3 544 577.7 562.8 575.3C581.7 573 600.3 568 619 565.8C637.7 563.7 656.3 564.3 675 566C693.7 567.7 712.3 570.3 731.2 571C750 571.7 769 570.3 787.8 570.5C806.7 570.7 825.3 572.3 844 570.3C862.7 568.3 881.3 562.7 890.7 559.8L900 557L900 601L890.7 601C881.3 601 862.7 601 844 601C825.3 601 806.7 601 787.8 601C769 601 750 601 731.2 601C712.3 601 693.7 601 675 601C656.3 601 637.7 601 619 601C600.3 601 581.7 601 562.8 601C544 601 525 601 506.2 601C487.3 601 468.7 601 450 601C431.3 601 412.7 601 394 601C375.3 601 356.7 601 337.8 601C319 601 300 601 281.2 601C262.3 601 243.7 601 225 601C206.3 601 187.7 601 169 601C150.3 601 131.7 601 112.8 601C94 601 75 601 56.2 601C37.3 601 18.7 601 9.3 601L0 601Z" fill="#e19696"></path></svg>